P1
6 6
000011
010100
111111
010100
000011
000000
