P1
6 6
110000
001010
111111
001010
110000
000000
