P1
6 6
001000
011100
001000
011100
101010
101010
