P1
6 6
101010
101010
011100
001000
011100
001000
